G04 ---------------------------- Layer name :BOTTOM LAYER*
G04 easyEDA 0.1*
G04 Scale: 100 percent, Rotated: No, Reflected: No *
G04 Dimensions in inches *
G04 leading zeros omitted , absolute positions ,2 integer and 4 * 
%FSLAX24Y24*%
%MOIN*%
G90*
G70D02*

%ADD11C,0.011810*%
%ADD12C,0.060000*%

%LPD*%
G54D11*
G01X4000Y80000D02*
G01X6000Y80000D01*
G01X6500Y79500D01*
G01X6500Y76500D01*
G01X7000Y76000D01*
G01X3500Y87000D02*
G01X2500Y87000D01*
G01X2000Y86500D01*
G01X2000Y84000D01*
G01X2500Y83500D01*
G01X7500Y83500D01*
G01X8000Y83000D01*
G01X8000Y78000D01*
G01X7000Y76000D02*
G01X8000Y76000D01*
G36*
G01X3000Y84500D02*
G01X9001Y84500D01*
G01X10001Y83500D01*
G01X10001Y86500D01*
G01X9001Y85500D01*
G01X3000Y85500D01*
G01X3000Y85500D01*
G01X3000Y84500D01*
G37*
G36*
G01X13500Y116500D02*
G01X3500Y116500D01*
G01X3000Y116000D01*
G01X3000Y86500D01*
G01X4000Y86500D01*
G01X4000Y115000D01*
G01X4500Y115500D01*
G01X13500Y115500D01*
G01X13500Y116500D01*
G37*
G36*
G01X43499Y116500D02*
G01X43999Y116500D01*
G01X44499Y116000D01*
G01X44499Y89500D01*
G01X44499Y64000D01*
G01X43999Y63500D01*
G01X43499Y63500D01*
G01X43499Y115000D01*
G01X42999Y115500D01*
G01X43499Y116500D01*
G37*
G36*
G01X8500Y71500D02*
G01X9500Y72500D01*
G01X9500Y90000D01*
G01X9500Y107500D01*
G01X8500Y108500D01*
G01X12500Y108500D01*
G01X11500Y107500D01*
G01X11500Y72500D01*
G01X12500Y71500D01*
G01X8500Y71500D01*
G37*
G36*
G01X13000Y64500D02*
G01X42999Y64500D01*
G01X43999Y65500D01*
G01X43999Y64500D01*
G01X43999Y64000D01*
G01X43999Y63500D01*
G01X13000Y63500D01*
G01X13000Y64000D01*
G01X13000Y64500D01*
G37*
G36*
G01X13000Y77500D02*
G01X43000Y77499D01*
G01X44000Y78499D01*
G01X44000Y75499D01*
G01X43000Y76499D01*
G01X13000Y76500D01*
G01X13000Y77000D01*
G01X13000Y77500D01*
G37*
G36*
G01X13000Y90500D02*
G01X43000Y90499D01*
G01X44000Y91499D01*
G01X44000Y88499D01*
G01X43000Y89499D01*
G01X13000Y89500D01*
G01X13000Y90000D01*
G01X13000Y90500D01*
G37*
G36*
G01X13000Y103500D02*
G01X42999Y103500D01*
G01X44000Y104499D01*
G01X44000Y101499D01*
G01X42999Y102500D01*
G01X13000Y102500D01*
G01X13000Y103000D01*
G01X13000Y103500D01*
G37*
G36*
G01X43499Y116500D02*
G01X13000Y116500D01*
G01X13000Y115500D01*
G01X43499Y115500D01*
G01X43499Y116000D01*
G01X43499Y116500D01*
G37*
G36*
G01X42499Y113000D02*
G01X24000Y113000D01*
G01X6500Y113000D01*
G01X6000Y112500D01*
G01X6000Y108500D01*
G01X6500Y108000D01*
G01X24000Y108000D01*
G01X42499Y108000D01*
G01X42999Y108500D01*
G01X42999Y110000D01*
G01X42999Y112500D01*
G01X42499Y113000D01*
G37*
G36*
G01X42000Y98000D02*
G01X12001Y97998D01*
G01X11001Y98998D01*
G01X11000Y94000D01*
G01X12000Y95000D01*
G01X42000Y95000D01*
G01X42500Y95500D01*
G01X42500Y97000D01*
G01X42500Y97500D01*
G01X42000Y98000D01*
G37*
G36*
G01X42000Y85000D02*
G01X27000Y85000D01*
G01X12000Y85000D01*
G01X11000Y86000D01*
G01X11000Y81000D01*
G01X12000Y82000D01*
G01X27000Y82000D01*
G01X41999Y82000D01*
G01X42499Y82500D01*
G01X42500Y84500D01*
G01X42000Y85000D01*
G37*
G36*
G01X6000Y72000D02*
G01X42499Y72000D01*
G01X42999Y71500D01*
G01X42999Y67500D01*
G01X42499Y67000D01*
G01X6000Y67000D01*
G01X5500Y67500D01*
G01X5500Y71500D01*
G01X6000Y72000D01*
G37*
G36*
G01X33500Y117500D02*
G01X33500Y117500D01*
G01X33500Y116000D01*
G01X34500Y116000D01*
G01X34500Y117500D01*
G01X33500Y117500D01*
G37*
G36*
G01X7500Y117500D02*
G01X7500Y117500D01*
G01X7500Y116000D01*
G01X8500Y116000D01*
G01X8500Y117500D01*
G01X7500Y117500D01*
G37*
G36*
G01X20500Y117500D02*
G01X20500Y117500D01*
G01X20500Y116000D01*
G01X21500Y116000D01*
G01X21500Y117500D01*
G01X20500Y117500D01*
G37*
G54D12*
G01X3000Y65000D03*
G01X3000Y66000D03*
G01X3000Y67000D03*
G01X3000Y68000D03*
G01X3000Y69000D03*
G01X3000Y70000D03*
G01X3000Y71000D03*
G01X3000Y72000D03*
G01X3000Y73000D03*
G01X3000Y74000D03*
G01X3000Y75000D03*
G01X3000Y76000D03*
G01X3000Y77000D03*
G01X3000Y78000D03*
G01X3000Y79000D03*
G01X3000Y80000D03*
G01X3000Y81000D03*
G01X4000Y81000D03*
G01X4000Y80000D03*
G01X4000Y79000D03*
G01X4000Y78000D03*
G01X4000Y77000D03*
G01X4000Y76000D03*
G01X4000Y75000D03*
G01X4000Y74000D03*
G01X4000Y73000D03*
G01X4000Y71000D03*
G01X4000Y71000D03*
G01X4000Y72000D03*
G01X4000Y70000D03*
G01X4000Y69000D03*
G01X4000Y68000D03*
G01X4000Y67000D03*
G01X4000Y66000D03*
G01X4000Y65000D03*
G01X8000Y116998D03*
G01X8000Y114998D03*
G01X14000Y116998D03*
G01X14000Y115998D03*
G01X14000Y114998D03*
G01X27000Y116998D03*
G01X40000Y116998D03*
G01X27000Y115998D03*
G01X27000Y114998D03*
G01X40000Y115998D03*
G01X40000Y114998D03*
G01X14000Y103998D03*
G01X14000Y102998D03*
G01X14000Y101998D03*
G01X27000Y103998D03*
G01X27000Y102998D03*
G01X27000Y101998D03*
G01X40000Y103998D03*
G01X40000Y102998D03*
G01X40000Y101998D03*
G01X14000Y91000D03*
G01X14000Y90000D03*
G01X14000Y89000D03*
G01X27000Y91000D03*
G01X27000Y90000D03*
G01X27000Y89000D03*
G01X40000Y91000D03*
G01X40000Y90000D03*
G01X40000Y89000D03*
G01X14000Y78000D03*
G01X14000Y77000D03*
G01X14000Y76000D03*
G01X27000Y78000D03*
G01X27000Y77000D03*
G01X27000Y76000D03*
G01X40000Y78000D03*
G01X40000Y77000D03*
G01X40000Y76000D03*
G01X14000Y65000D03*
G01X14000Y64000D03*
G01X14000Y63000D03*
G01X27000Y65000D03*
G01X27000Y64000D03*
G01X27000Y63000D03*
G01X40000Y65000D03*
G01X40000Y64000D03*
G01X40000Y63000D03*
G01X8000Y78000D03*
G01X8000Y76000D03*
G01X15000Y114998D03*
G01X16000Y116998D03*
G01X7000Y115000D03*
G01X7000Y110000D03*
G01X15000Y110000D03*
G01X16000Y112000D03*
G01X28000Y115000D03*
G01X29000Y117000D03*
G01X28000Y110000D03*
G01X28000Y109000D03*
G01X29000Y112000D03*
G01X15000Y109000D03*
G01X15000Y104000D03*
G01X15000Y102000D03*
G01X28000Y102000D03*
G01X28000Y104000D03*
G01X41000Y115000D03*
G01X42000Y117000D03*
G01X42000Y112000D03*
G01X41000Y110000D03*
G01X41000Y109000D03*
G01X41000Y104000D03*
G01X41000Y102000D03*
G01X41000Y97000D03*
G01X28000Y97000D03*
G01X15000Y97000D03*
G01X15000Y96000D03*
G01X28000Y96000D03*
G01X41000Y96000D03*
G01X15000Y91000D03*
G01X15000Y89000D03*
G01X28000Y91000D03*
G01X28000Y89000D03*
G01X41000Y91000D03*
G01X41000Y89000D03*
G01X28000Y84000D03*
G01X15000Y84000D03*
G01X15000Y83000D03*
G01X15000Y78000D03*
G01X28000Y78000D03*
G01X28000Y83000D03*
G01X41000Y83000D03*
G01X41000Y78000D03*
G01X41000Y76000D03*
G01X41000Y71000D03*
G01X28000Y76000D03*
G01X28000Y71000D03*
G01X15000Y71000D03*
G01X15000Y76000D03*
G01X41000Y84000D03*
G01X41000Y70000D03*
G01X42000Y68000D03*
G01X42000Y63000D03*
G01X41000Y65000D03*
G01X29000Y63000D03*
G01X28000Y65000D03*
G01X29000Y68000D03*
G01X28000Y70000D03*
G01X15000Y70000D03*
G01X16000Y68000D03*
G01X16000Y63000D03*
G01X15000Y65000D03*
G01X7000Y76000D03*
G01X7000Y71000D03*
G01X3500Y87000D03*
G01X3500Y86000D03*
G01X3500Y85000D03*
G01X34000Y115000D03*
G01X34000Y117000D03*
G01X33000Y115000D03*
G01X33000Y110000D03*
G01X21000Y115000D03*
G01X21000Y117000D03*
G01X20000Y115000D03*
G01X20000Y110000D03*
G01X3000Y65000D03*
G01X3000Y66000D03*
G01X3000Y67000D03*
G01X3000Y68000D03*
G01X3000Y69000D03*
G01X3000Y70000D03*
G01X3000Y71000D03*
G01X3000Y72000D03*
G01X3000Y73000D03*
G01X3000Y74000D03*
G01X3000Y75000D03*
G01X3000Y76000D03*
G01X3000Y77000D03*
G01X3000Y78000D03*
G01X3000Y79000D03*
G01X3000Y80000D03*
G01X3000Y81000D03*
G01X4000Y81000D03*
G01X4000Y80000D03*
G01X4000Y79000D03*
G01X4000Y78000D03*
G01X4000Y77000D03*
G01X4000Y76000D03*
G01X4000Y75000D03*
G01X4000Y74000D03*
G01X4000Y73000D03*
G01X4000Y71000D03*
G01X4000Y71000D03*
G01X4000Y72000D03*
G01X4000Y70000D03*
G01X4000Y69000D03*
G01X4000Y68000D03*
G01X4000Y67000D03*
G01X4000Y66000D03*
G01X4000Y65000D03*
G01X8000Y116998D03*
G01X8000Y114998D03*
G01X14000Y116998D03*
G01X14000Y115998D03*
G01X14000Y114998D03*
G01X27000Y116998D03*
G01X40000Y116998D03*
G01X27000Y115998D03*
G01X27000Y114998D03*
G01X40000Y115998D03*
G01X40000Y114998D03*
G01X14000Y103998D03*
G01X14000Y102998D03*
G01X14000Y101998D03*
G01X27000Y103998D03*
G01X27000Y102998D03*
G01X27000Y101998D03*
G01X40000Y103998D03*
G01X40000Y102998D03*
G01X40000Y101998D03*
G01X14000Y91000D03*
G01X14000Y90000D03*
G01X14000Y89000D03*
G01X27000Y91000D03*
G01X27000Y90000D03*
G01X27000Y89000D03*
G01X40000Y91000D03*
G01X40000Y90000D03*
G01X40000Y89000D03*
G01X14000Y78000D03*
G01X14000Y77000D03*
G01X14000Y76000D03*
G01X27000Y78000D03*
G01X27000Y77000D03*
G01X27000Y76000D03*
G01X40000Y78000D03*
G01X40000Y77000D03*
G01X40000Y76000D03*
G01X14000Y65000D03*
G01X14000Y64000D03*
G01X14000Y63000D03*
G01X27000Y65000D03*
G01X27000Y64000D03*
G01X27000Y63000D03*
G01X40000Y65000D03*
G01X40000Y64000D03*
G01X40000Y63000D03*
G01X8000Y78000D03*
G01X8000Y76000D03*
G01X15000Y114998D03*
G01X16000Y116998D03*
G01X7000Y115000D03*
G01X7000Y110000D03*
G01X15000Y110000D03*
G01X16000Y112000D03*
G01X28000Y115000D03*
G01X29000Y117000D03*
G01X28000Y110000D03*
G01X28000Y109000D03*
G01X29000Y112000D03*
G01X15000Y109000D03*
G01X15000Y104000D03*
G01X15000Y102000D03*
G01X28000Y102000D03*
G01X28000Y104000D03*
G01X41000Y115000D03*
G01X42000Y117000D03*
G01X42000Y112000D03*
G01X41000Y110000D03*
G01X41000Y109000D03*
G01X41000Y104000D03*
G01X41000Y102000D03*
G01X41000Y97000D03*
G01X28000Y97000D03*
G01X15000Y97000D03*
G01X15000Y96000D03*
G01X28000Y96000D03*
G01X41000Y96000D03*
G01X15000Y91000D03*
G01X15000Y89000D03*
G01X28000Y91000D03*
G01X28000Y89000D03*
G01X41000Y91000D03*
G01X41000Y89000D03*
G01X28000Y84000D03*
G01X15000Y84000D03*
G01X15000Y83000D03*
G01X15000Y78000D03*
G01X28000Y78000D03*
G01X28000Y83000D03*
G01X41000Y83000D03*
G01X41000Y78000D03*
G01X41000Y76000D03*
G01X41000Y71000D03*
G01X28000Y76000D03*
G01X28000Y71000D03*
G01X15000Y71000D03*
G01X15000Y76000D03*
G01X41000Y84000D03*
G01X41000Y70000D03*
G01X42000Y68000D03*
G01X42000Y63000D03*
G01X41000Y65000D03*
G01X29000Y63000D03*
G01X28000Y65000D03*
G01X29000Y68000D03*
G01X28000Y70000D03*
G01X15000Y70000D03*
G01X16000Y68000D03*
G01X16000Y63000D03*
G01X15000Y65000D03*
G01X7000Y76000D03*
G01X7000Y71000D03*
G01X3500Y87000D03*
G01X3500Y86000D03*
G01X3500Y85000D03*
G01X34000Y115000D03*
G01X34000Y117000D03*
G01X33000Y115000D03*
G01X33000Y110000D03*
G01X21000Y115000D03*
G01X21000Y117000D03*
G01X20000Y115000D03*
G01X20000Y110000D03*

M00*
M02*