G04 ---------------------------- Layer name :BOTTOM SOLDER LAYER*
G04 easyEDA 0.1*
G04 Scale: 100 percent, Rotated: No, Reflected: No *
G04 Dimensions in inches *
G04 leading zeros omitted , absolute positions ,2 integer and 4 * 
%FSLAX24Y24*%
%MOIN*%
G90*
G70D02*

%ADD11C,0.068000*%

%LPD*%
G54D11*
G01X3000Y65000D03*
G01X3000Y66000D03*
G01X3000Y67000D03*
G01X3000Y68000D03*
G01X3000Y69000D03*
G01X3000Y70000D03*
G01X3000Y71000D03*
G01X3000Y72000D03*
G01X3000Y73000D03*
G01X3000Y74000D03*
G01X3000Y75000D03*
G01X3000Y76000D03*
G01X3000Y77000D03*
G01X3000Y78000D03*
G01X3000Y79000D03*
G01X3000Y80000D03*
G01X3000Y81000D03*
G01X4000Y81000D03*
G01X4000Y80000D03*
G01X4000Y79000D03*
G01X4000Y78000D03*
G01X4000Y77000D03*
G01X4000Y76000D03*
G01X4000Y75000D03*
G01X4000Y74000D03*
G01X4000Y73000D03*
G01X4000Y71000D03*
G01X4000Y71000D03*
G01X4000Y72000D03*
G01X4000Y70000D03*
G01X4000Y69000D03*
G01X4000Y68000D03*
G01X4000Y67000D03*
G01X4000Y66000D03*
G01X4000Y65000D03*
G01X8000Y116998D03*
G01X8000Y114998D03*
G01X14000Y116998D03*
G01X14000Y115998D03*
G01X14000Y114998D03*
G01X27000Y116998D03*
G01X40000Y116998D03*
G01X27000Y115998D03*
G01X27000Y114998D03*
G01X40000Y115998D03*
G01X40000Y114998D03*
G01X14000Y103998D03*
G01X14000Y102998D03*
G01X14000Y101998D03*
G01X27000Y103998D03*
G01X27000Y102998D03*
G01X27000Y101998D03*
G01X40000Y103998D03*
G01X40000Y102998D03*
G01X40000Y101998D03*
G01X14000Y91000D03*
G01X14000Y90000D03*
G01X14000Y89000D03*
G01X27000Y91000D03*
G01X27000Y90000D03*
G01X27000Y89000D03*
G01X40000Y91000D03*
G01X40000Y90000D03*
G01X40000Y89000D03*
G01X14000Y78000D03*
G01X14000Y77000D03*
G01X14000Y76000D03*
G01X27000Y78000D03*
G01X27000Y77000D03*
G01X27000Y76000D03*
G01X40000Y78000D03*
G01X40000Y77000D03*
G01X40000Y76000D03*
G01X14000Y65000D03*
G01X14000Y64000D03*
G01X14000Y63000D03*
G01X27000Y65000D03*
G01X27000Y64000D03*
G01X27000Y63000D03*
G01X40000Y65000D03*
G01X40000Y64000D03*
G01X40000Y63000D03*
G01X8000Y78000D03*
G01X8000Y76000D03*
G01X15000Y114998D03*
G01X16000Y116998D03*
G01X7000Y115000D03*
G01X7000Y110000D03*
G01X15000Y110000D03*
G01X16000Y112000D03*
G01X28000Y115000D03*
G01X29000Y117000D03*
G01X28000Y110000D03*
G01X28000Y109000D03*
G01X29000Y112000D03*
G01X15000Y109000D03*
G01X15000Y104000D03*
G01X15000Y102000D03*
G01X28000Y102000D03*
G01X28000Y104000D03*
G01X41000Y115000D03*
G01X42000Y117000D03*
G01X42000Y112000D03*
G01X41000Y110000D03*
G01X41000Y109000D03*
G01X41000Y104000D03*
G01X41000Y102000D03*
G01X41000Y97000D03*
G01X28000Y97000D03*
G01X15000Y97000D03*
G01X15000Y96000D03*
G01X28000Y96000D03*
G01X41000Y96000D03*
G01X15000Y91000D03*
G01X15000Y89000D03*
G01X28000Y91000D03*
G01X28000Y89000D03*
G01X41000Y91000D03*
G01X41000Y89000D03*
G01X28000Y84000D03*
G01X15000Y84000D03*
G01X15000Y83000D03*
G01X15000Y78000D03*
G01X28000Y78000D03*
G01X28000Y83000D03*
G01X41000Y83000D03*
G01X41000Y78000D03*
G01X41000Y76000D03*
G01X41000Y71000D03*
G01X28000Y76000D03*
G01X28000Y71000D03*
G01X15000Y71000D03*
G01X15000Y76000D03*
G01X41000Y84000D03*
G01X41000Y70000D03*
G01X42000Y68000D03*
G01X42000Y63000D03*
G01X41000Y65000D03*
G01X29000Y63000D03*
G01X28000Y65000D03*
G01X29000Y68000D03*
G01X28000Y70000D03*
G01X15000Y70000D03*
G01X16000Y68000D03*
G01X16000Y63000D03*
G01X15000Y65000D03*
G01X7000Y76000D03*
G01X7000Y71000D03*
G01X3500Y87000D03*
G01X3500Y86000D03*
G01X3500Y85000D03*
G01X34000Y115000D03*
G01X34000Y117000D03*
G01X33000Y115000D03*
G01X33000Y110000D03*
G01X21000Y115000D03*
G01X21000Y117000D03*
G01X20000Y115000D03*
G01X20000Y110000D03*

M00*
M02*