;PTH Drill file created by EasyEDA 
M48
;Holesize 1 = 0.036 INCH
T01C0.036
INCH,00.0000
%
G05
G90
T01
X003000Y065000
X003000Y066000
X003000Y067000
X003000Y068000
X003000Y069000
X003000Y070000
X003000Y071000
X003000Y072000
X003000Y073000
X003000Y074000
X003000Y075000
X003000Y076000
X003000Y077000
X003000Y078000
X003000Y079000
X003000Y080000
X003000Y081000
X004000Y081000
X004000Y080000
X004000Y079000
X004000Y078000
X004000Y077000
X004000Y076000
X004000Y075000
X004000Y074000
X004000Y073000
X004000Y071000
X004000Y071000
X004000Y072000
X004000Y070000
X004000Y069000
X004000Y068000
X004000Y067000
X004000Y066000
X004000Y065000
X008000Y116998
X008000Y114998
X014000Y116998
X014000Y115998
X014000Y114998
X027000Y116998
X040000Y116998
X027000Y115998
X027000Y114998
X040000Y115998
X040000Y114998
X014000Y103998
X014000Y102998
X014000Y101998
X027000Y103998
X027000Y102998
X027000Y101998
X040000Y103998
X040000Y102998
X040000Y101998
X014000Y091000
X014000Y090000
X014000Y089000
X027000Y091000
X027000Y090000
X027000Y089000
X040000Y091000
X040000Y090000
X040000Y089000
X014000Y078000
X014000Y077000
X014000Y076000
X027000Y078000
X027000Y077000
X027000Y076000
X040000Y078000
X040000Y077000
X040000Y076000
X014000Y065000
X014000Y064000
X014000Y063000
X027000Y065000
X027000Y064000
X027000Y063000
X040000Y065000
X040000Y064000
X040000Y063000
X008000Y078000
X008000Y076000
X015000Y114998
X016000Y116998
X007000Y115000
X007000Y110000
X015000Y110000
X016000Y112000
X028000Y115000
X029000Y117000
X028000Y110000
X028000Y109000
X029000Y112000
X015000Y109000
X015000Y104000
X015000Y102000
X028000Y102000
X028000Y104000
X041000Y115000
X042000Y117000
X042000Y112000
X041000Y110000
X041000Y109000
X041000Y104000
X041000Y102000
X041000Y097000
X028000Y097000
X015000Y097000
X015000Y096000
X028000Y096000
X041000Y096000
X015000Y091000
X015000Y089000
X028000Y091000
X028000Y089000
X041000Y091000
X041000Y089000
X028000Y084000
X015000Y084000
X015000Y083000
X015000Y078000
X028000Y078000
X028000Y083000
X041000Y083000
X041000Y078000
X041000Y076000
X041000Y071000
X028000Y076000
X028000Y071000
X015000Y071000
X015000Y076000
X041000Y084000
X041000Y070000
X042000Y068000
X042000Y063000
X041000Y065000
X029000Y063000
X028000Y065000
X029000Y068000
X028000Y070000
X015000Y070000
X016000Y068000
X016000Y063000
X015000Y065000
X007000Y076000
X007000Y071000
X003500Y087000
X003500Y086000
X003500Y085000
X034000Y115000
X034000Y117000
X033000Y115000
X033000Y110000
X021000Y115000
X021000Y117000
X020000Y115000
X020000Y110000
M30
